<?xml version="1.0" encoding="UTF-8"?>
<svg xmlns="http://www.w3.org/2000/svg" viewBox="0 0 500 350" width="500" height="350" font-family="serif">
<rect width="500" height="350" fill="white"/>
<text x="250" y="25" text-anchor="middle" font-size="13" font-weight="bold">Model Hierarchy: LOO Cross-Validation Performance</text>
<rect x="106" y="153.21249999999998" width="78" height="126.78750000000001" fill="#2563eb" opacity="0.8" rx="3"/><text x="145" y="145.21249999999998" text-anchor="middle" font-size="12" font-weight="bold">44.1%</text><text x="145" y="298" text-anchor="middle" font-size="10">Core</text><text x="145" y="312" text-anchor="middle" font-size="10">(3-axis)</text><rect x="236" y="104.33749999999998" width="78" height="175.66250000000002" fill="#7c3aed" opacity="0.8" rx="3"/><text x="275" y="96.33749999999998" text-anchor="middle" font-size="12" font-weight="bold">61.1%</text><text x="275" y="298" text-anchor="middle" font-size="10">Core +</text><text x="275" y="312" text-anchor="middle" font-size="10">VfResid</text><rect x="366" y="91.97499999999997" width="78" height="188.02500000000003" fill="#059669" opacity="0.8" rx="3"/><text x="405" y="83.97499999999997" text-anchor="middle" font-size="12" font-weight="bold">65.4%</text><text x="405" y="298" text-anchor="middle" font-size="10">Full</text><text x="405" y="312" text-anchor="middle" font-size="10">(5-axis)</text><line x1="80" y1="280" x2="470" y2="280" stroke="black" stroke-width="1"/><line x1="80" y1="50" x2="80" y2="280" stroke="black" stroke-width="1"/><line x1="75" y1="280" x2="80" y2="280" stroke="black"/><text x="72" y="284" text-anchor="end" font-size="10">0%</text><line x1="75" y1="222.5" x2="80" y2="222.5" stroke="black"/><text x="72" y="226.5" text-anchor="end" font-size="10">20%</text><line x1="80" y1="222.5" x2="470" y2="222.5" stroke="#ddd" stroke-width="0.5" stroke-dasharray="4,3"/><line x1="75" y1="165" x2="80" y2="165" stroke="black"/><text x="72" y="169" text-anchor="end" font-size="10">40%</text><line x1="80" y1="165" x2="470" y2="165" stroke="#ddd" stroke-width="0.5" stroke-dasharray="4,3"/><line x1="75" y1="107.5" x2="80" y2="107.5" stroke="black"/><text x="72" y="111.5" text-anchor="end" font-size="10">60%</text><line x1="80" y1="107.5" x2="470" y2="107.5" stroke="#ddd" stroke-width="0.5" stroke-dasharray="4,3"/><line x1="75" y1="50" x2="80" y2="50" stroke="black"/><text x="72" y="54" text-anchor="end" font-size="10">80%</text><line x1="80" y1="50" x2="470" y2="50" stroke="#ddd" stroke-width="0.5" stroke-dasharray="4,3"/><text x="18" y="165" text-anchor="middle" font-size="11" transform="rotate(-90,18,165)">LOO gap (% variance explained)</text><text x="275" y="345" text-anchor="middle" font-size="10" fill="#666">N = 45 published-quality SPARC galaxies</text><line x1="145" y1="86.33749999999998" x2="275" y2="86.33749999999998" stroke="#333" stroke-width="1" marker-start="url(#arrowL)" marker-end="url(#arrowR)"/><text x="210" y="80.33749999999998" text-anchor="middle" font-size="9" fill="#333">+17.1 pp</text><line x1="275" y1="73.97499999999997" x2="405" y2="73.97499999999997" stroke="#333" stroke-width="1" marker-start="url(#arrowL)" marker-end="url(#arrowR)"/><text x="340" y="67.97499999999997" text-anchor="middle" font-size="9" fill="#333">+4.3 pp</text><defs>
    <marker id="arrowR" markerWidth="6" markerHeight="6" refX="5" refY="3" orient="auto"><path d="M0,0 L6,3 L0,6" fill="none" stroke="#333" stroke-width="0.8"/></marker>
    <marker id="arrowL" markerWidth="6" markerHeight="6" refX="1" refY="3" orient="auto"><path d="M6,0 L0,3 L6,6" fill="none" stroke="#333" stroke-width="0.8"/></marker>
  </defs></svg>
