<?xml version="1.0" encoding="UTF-8"?>
<svg xmlns="http://www.w3.org/2000/svg" viewBox="0 0 520 380" width="520" height="380" font-family="serif">
<rect width="520" height="380" fill="white"/>
<text x="260" y="25" text-anchor="middle" font-size="13" font-weight="bold">External Validation: Frozen-Coefficient Transfer</text>
<line x1="80" y1="295" x2="490" y2="295" stroke="black" stroke-width="1"/><line x1="80" y1="50" x2="80" y2="295" stroke="black" stroke-width="1"/><line x1="75" y1="270.5" x2="80" y2="270.5" stroke="black"/><text x="72" y="274.5" text-anchor="end" font-size="10">-20%</text><line x1="80" y1="270.5" x2="490" y2="270.5" stroke="#eee" stroke-width="0.5" stroke-dasharray="4,3"/><line x1="75" y1="221.5" x2="80" y2="221.5" stroke="black"/><text x="72" y="225.5" text-anchor="end" font-size="10">0%</text><line x1="80" y1="221.5" x2="490" y2="221.5" stroke="#eee" stroke-width="0.5" stroke-dasharray="4,3"/><line x1="75" y1="172.5" x2="80" y2="172.5" stroke="black"/><text x="72" y="176.5" text-anchor="end" font-size="10">20%</text><line x1="80" y1="172.5" x2="490" y2="172.5" stroke="#eee" stroke-width="0.5" stroke-dasharray="4,3"/><line x1="75" y1="123.5" x2="80" y2="123.5" stroke="black"/><text x="72" y="127.5" text-anchor="end" font-size="10">40%</text><line x1="80" y1="123.5" x2="490" y2="123.5" stroke="#eee" stroke-width="0.5" stroke-dasharray="4,3"/><line x1="75" y1="74.5" x2="80" y2="74.5" stroke="black"/><text x="72" y="78.5" text-anchor="end" font-size="10">60%</text><line x1="80" y1="74.5" x2="490" y2="74.5" stroke="#eee" stroke-width="0.5" stroke-dasharray="4,3"/><line x1="80" y1="221.5" x2="490" y2="221.5" stroke="#999" stroke-width="1" stroke-dasharray="6,3"/><rect x="98.5" y="221.5" width="30.75" height="19.845" fill="#f59e0b" opacity="0.8" rx="2"/><rect x="133.25" y="201.41" width="30.75" height="20.090000000000003" fill="#2563eb" opacity="0.8" rx="2"/><text x="113.875" y="255.345" text-anchor="middle" font-size="9">-8.1%</text><text x="148.625" y="196.41" text-anchor="middle" font-size="9" font-weight="bold">8.2%</text><text x="131.25" y="313" text-anchor="middle" font-size="10">Full</text><text x="131.25" y="326" text-anchor="middle" font-size="10">(N=59)</text><rect x="201" y="180.58499999999998" width="30.75" height="40.91500000000002" fill="#f59e0b" opacity="0.8" rx="2"/><rect x="235.75" y="137.465" width="30.75" height="84.035" fill="#2563eb" opacity="0.8" rx="2"/><text x="216.375" y="175.58499999999998" text-anchor="middle" font-size="9">16.7%</text><text x="251.125" y="132.465" text-anchor="middle" font-size="9" font-weight="bold">34.3%</text><text x="233.75" y="313" text-anchor="middle" font-size="10">High-V</text><text x="233.75" y="326" text-anchor="middle" font-size="10">(N=16)</text><rect x="303.5" y="221.5" width="30.75" height="40.91500000000002" fill="#f59e0b" opacity="0.8" rx="2"/><rect x="338.25" y="102.185" width="30.75" height="119.315" fill="#2563eb" opacity="0.8" rx="2"/><text x="318.875" y="276.415" text-anchor="middle" font-size="9">-16.7%</text><text x="353.625" y="97.185" text-anchor="middle" font-size="9" font-weight="bold">48.7%</text><text x="336.25" y="313" text-anchor="middle" font-size="10">V-High-V</text><text x="336.25" y="326" text-anchor="middle" font-size="10">(N=8)</text><rect x="406" y="159.27" width="30.75" height="62.22999999999999" fill="#f59e0b" opacity="0.8" rx="2"/><rect x="440.75" y="76.94999999999999" width="30.75" height="144.55" fill="#2563eb" opacity="0.8" rx="2"/><text x="421.375" y="154.27" text-anchor="middle" font-size="9">25.4%</text><text x="456.125" y="71.94999999999999" text-anchor="middle" font-size="9" font-weight="bold">59%</text><text x="438.75" y="313" text-anchor="middle" font-size="10">Q1+HV</text><text x="438.75" y="326" text-anchor="middle" font-size="10">(N=11)</text><text x="18" y="172.5" text-anchor="middle" font-size="11" transform="rotate(-90,18,172.5)">Transfer gap (%)</text><rect x="90" y="361" width="12" height="10" fill="#f59e0b" opacity="0.8" rx="2"/><text x="106" y="370" font-size="10">Core (improved Mhost)</text><rect x="250" y="361" width="12" height="10" fill="#2563eb" opacity="0.8" rx="2"/><text x="266" y="370" font-size="10">Core + VfResid</text></svg>
