<?xml version="1.0" encoding="UTF-8"?>
<svg xmlns="http://www.w3.org/2000/svg" viewBox="0 0 520 380" width="520" height="380" font-family="serif">
<rect width="520" height="380" fill="white"/>
<text x="260" y="25" text-anchor="middle" font-size="13" font-weight="bold">Regime Dependence: VfResid-a₀ Coupling vs Vflat Threshold</text>
<line x1="70" y1="320" x2="470" y2="320" stroke="black" stroke-width="1"/><line x1="70" y1="50" x2="70" y2="320" stroke="black" stroke-width="1"/><text x="270" y="370" text-anchor="middle" font-size="12">Vflat threshold (km/s)</text><text x="15" y="185" text-anchor="middle" font-size="12" transform="rotate(-90,15,185)">r(VfResid, log a₀)</text><line x1="93.52941176470588" y1="320" x2="93.52941176470588" y2="325" stroke="black"/><text x="93.52941176470588" y="338" text-anchor="middle" font-size="10">50</text><line x1="164.11764705882354" y1="320" x2="164.11764705882354" y2="325" stroke="black"/><text x="164.11764705882354" y="338" text-anchor="middle" font-size="10">80</text><line x1="211.1764705882353" y1="320" x2="211.1764705882353" y2="325" stroke="black"/><text x="211.1764705882353" y="338" text-anchor="middle" font-size="10">100</text><line x1="258.2352941176471" y1="320" x2="258.2352941176471" y2="325" stroke="black"/><text x="258.2352941176471" y="338" text-anchor="middle" font-size="10">120</text><line x1="328.8235294117647" y1="320" x2="328.8235294117647" y2="325" stroke="black"/><text x="328.8235294117647" y="338" text-anchor="middle" font-size="10">150</text><line x1="399.4117647058823" y1="320" x2="399.4117647058823" y2="325" stroke="black"/><text x="399.4117647058823" y="338" text-anchor="middle" font-size="10">180</text><line x1="446.4705882352941" y1="320" x2="446.4705882352941" y2="325" stroke="black"/><text x="446.4705882352941" y="338" text-anchor="middle" font-size="10">200</text><line x1="65" y1="320" x2="70" y2="320" stroke="black"/><text x="62" y="324" text-anchor="end" font-size="10">0.3</text><line x1="65" y1="281.42857142857144" x2="70" y2="281.42857142857144" stroke="black"/><text x="62" y="285.42857142857144" text-anchor="end" font-size="10">0.4</text><line x1="65" y1="242.85714285714283" x2="70" y2="242.85714285714283" stroke="black"/><text x="62" y="246.85714285714283" text-anchor="end" font-size="10">0.5</text><line x1="65" y1="204.28571428571428" x2="70" y2="204.28571428571428" stroke="black"/><text x="62" y="208.28571428571428" text-anchor="end" font-size="10">0.6</text><line x1="65" y1="165.71428571428572" x2="70" y2="165.71428571428572" stroke="black"/><text x="62" y="169.71428571428572" text-anchor="end" font-size="10">0.7</text><line x1="65" y1="127.14285714285714" x2="70" y2="127.14285714285714" stroke="black"/><text x="62" y="131.14285714285714" text-anchor="end" font-size="10">0.8</text><line x1="65" y1="88.57142857142853" x2="70" y2="88.57142857142853" stroke="black"/><text x="62" y="92.57142857142853" text-anchor="end" font-size="10">0.9</text><line x1="65" y1="50" x2="70" y2="50" stroke="black"/><text x="62" y="54" text-anchor="end" font-size="10">1</text><path d="M93.52941176470588,164.98972257755943 L140.58823529411765,163.403691366969 L187.64705882352942,149.4445721729059 L211.1764705882353,149.4445721729059 L234.70588235294116,135.19158035118537 L258.2352941176471,134.05219441510016 L281.7647058823529,140.00351147266724 L305.29411764705884,140.158091066216 L328.8235294117647,131.29460639183498 L352.3529411764706,105.31694546576992 L375.88235294117646,109.75213073863446 L399.4117647058823,115.80595487557642 L446.4705882352941,118.97137610874776" fill="none" stroke="#2563eb" stroke-width="2"/><circle cx="93.52941176470588" cy="164.98972257755943" r="4" fill="#2563eb"/><circle cx="140.58823529411765" cy="163.403691366969" r="4" fill="#2563eb"/><circle cx="187.64705882352942" cy="149.4445721729059" r="4" fill="#2563eb"/><circle cx="211.1764705882353" cy="149.4445721729059" r="4" fill="#2563eb"/><circle cx="234.70588235294116" cy="135.19158035118537" r="4" fill="#2563eb"/><circle cx="258.2352941176471" cy="134.05219441510016" r="4" fill="#2563eb"/><circle cx="281.7647058823529" cy="140.00351147266724" r="4" fill="#2563eb"/><circle cx="305.29411764705884" cy="140.158091066216" r="4" fill="#2563eb"/><circle cx="328.8235294117647" cy="131.29460639183498" r="4" fill="#2563eb"/><circle cx="352.3529411764706" cy="105.31694546576992" r="4" fill="#2563eb"/><circle cx="375.88235294117646" cy="109.75213073863446" r="4" fill="#2563eb"/><circle cx="399.4117647058823" cy="115.80595487557642" r="4" fill="#2563eb"/><circle cx="446.4705882352941" cy="118.97137610874776" r="4" fill="#2563eb"/><line x1="258.2352941176471" y1="50" x2="258.2352941176471" y2="320" stroke="#999" stroke-width="1" stroke-dasharray="4,3"/><text x="263.2352941176471" y="65" font-size="9" fill="#666">120 km/s</text><circle cx="350" cy="65" r="4" fill="#2563eb"/><text x="358" y="69" font-size="10">Internal (N=45)</text></svg>
