<?xml version="1.0" encoding="UTF-8"?>
<svg xmlns="http://www.w3.org/2000/svg" viewBox="0 0 500 400" width="500" height="400" font-family="serif">
<rect width="500" height="400" fill="white"/>
<text x="250" y="25" text-anchor="middle" font-size="13" font-weight="bold">VfResid as Baryon-Halo Coupling Proxy</text>
<line x1="110" y1="50" x2="110" y2="350" stroke="black" stroke-width="1"/><line x1="110" y1="350" x2="470" y2="350" stroke="black" stroke-width="1"/><line x1="110" y1="350" x2="110" y2="355" stroke="black"/><text x="110" y="368" text-anchor="middle" font-size="10">0.0</text><line x1="110" y1="50" x2="110" y2="350" stroke="#eee" stroke-width="0.5" stroke-dasharray="4,3"/><line x1="212.8571428571429" y1="350" x2="212.8571428571429" y2="355" stroke="black"/><text x="212.8571428571429" y="368" text-anchor="middle" font-size="10">0.2</text><line x1="212.8571428571429" y1="50" x2="212.8571428571429" y2="350" stroke="#eee" stroke-width="0.5" stroke-dasharray="4,3"/><line x1="315.7142857142858" y1="350" x2="315.7142857142858" y2="355" stroke="black"/><text x="315.7142857142858" y="368" text-anchor="middle" font-size="10">0.4</text><line x1="315.7142857142858" y1="50" x2="315.7142857142858" y2="350" stroke="#eee" stroke-width="0.5" stroke-dasharray="4,3"/><text x="290" y="395" text-anchor="middle" font-size="11">|r| with VfResid</text><rect x="110" y="55.625" width="307.54285714285714" height="26.25" fill="#2563eb" opacity="0.7" rx="2"/><text x="105" y="72.75" text-anchor="end" font-size="10">haloK</text><text x="422.54285714285714" y="72.75" font-size="9" fill="#333">+0.598</text><rect x="110" y="93.125" width="278.7428571428572" height="26.25" fill="#dc2626" opacity="0.7" rx="2"/><text x="105" y="110.25" text-anchor="end" font-size="10">MOND Improv.</text><text x="393.7428571428572" y="110.25" font-size="9" fill="#333">-0.542</text><rect x="110" y="130.625" width="199.54285714285717" height="26.25" fill="#2563eb" opacity="0.7" rx="2"/><text x="105" y="147.75" text-anchor="end" font-size="10">log MR</text><text x="314.5428571428572" y="147.75" font-size="9" fill="#333">+0.388</text><rect x="110" y="168.125" width="197.4857142857143" height="26.25" fill="#dc2626" opacity="0.7" rx="2"/><text x="105" y="185.25" text-anchor="end" font-size="10">Environ.</text><text x="312.48571428571427" y="185.25" font-size="9" fill="#333">-0.384</text><rect x="110" y="205.625" width="163.54285714285717" height="26.25" fill="#2563eb" opacity="0.7" rx="2"/><text x="105" y="222.75" text-anchor="end" font-size="10">lhOuter</text><text x="278.5428571428572" y="222.75" font-size="9" fill="#333">+0.318</text><rect x="110" y="243.125" width="152.74285714285713" height="26.25" fill="#dc2626" opacity="0.7" rx="2"/><text x="105" y="260.25" text-anchor="end" font-size="10">log Mhost</text><text x="267.74285714285713" y="260.25" font-size="9" fill="#333">-0.297</text><rect x="110" y="280.625" width="148.62857142857143" height="26.25" fill="#2563eb" opacity="0.7" rx="2"/><text x="105" y="297.75" text-anchor="end" font-size="10">DHL MSE</text><text x="263.62857142857143" y="297.75" font-size="9" fill="#333">+0.289</text><rect x="110" y="318.125" width="112.62857142857143" height="26.25" fill="#2563eb" opacity="0.7" rx="2"/><text x="105" y="335.25" text-anchor="end" font-size="10">logSBeff</text><text x="227.62857142857143" y="335.25" font-size="9" fill="#333">+0.219</text></svg>
