<?xml version="1.0" encoding="UTF-8"?>
<svg xmlns="http://www.w3.org/2000/svg" viewBox="0 0 500 350" width="500" height="350" font-family="serif">
<rect width="500" height="350" fill="white"/>
<text x="250" y="25" text-anchor="middle" font-size="13" font-weight="bold">Physical Interpretation: Hypothesis Scores</text>
<line x1="140" y1="50" x2="140" y2="300" stroke="black" stroke-width="1"/><line x1="140" y1="300" x2="470" y2="300" stroke="black" stroke-width="1"/><line x1="140" y1="300" x2="140" y2="305" stroke="black"/><text x="140" y="318" text-anchor="middle" font-size="10">0</text><line x1="140" y1="50" x2="140" y2="300" stroke="#eee" stroke-width="0.5" stroke-dasharray="4,3"/><line x1="195" y1="300" x2="195" y2="305" stroke="black"/><text x="195" y="318" text-anchor="middle" font-size="10">2</text><line x1="195" y1="50" x2="195" y2="300" stroke="#eee" stroke-width="0.5" stroke-dasharray="4,3"/><line x1="250" y1="300" x2="250" y2="305" stroke="black"/><text x="250" y="318" text-anchor="middle" font-size="10">4</text><line x1="250" y1="50" x2="250" y2="300" stroke="#eee" stroke-width="0.5" stroke-dasharray="4,3"/><line x1="305" y1="300" x2="305" y2="305" stroke="black"/><text x="305" y="318" text-anchor="middle" font-size="10">6</text><line x1="305" y1="50" x2="305" y2="300" stroke="#eee" stroke-width="0.5" stroke-dasharray="4,3"/><line x1="360" y1="300" x2="360" y2="305" stroke="black"/><text x="360" y="318" text-anchor="middle" font-size="10">8</text><line x1="360" y1="50" x2="360" y2="300" stroke="#eee" stroke-width="0.5" stroke-dasharray="4,3"/><line x1="415" y1="300" x2="415" y2="305" stroke="black"/><text x="415" y="318" text-anchor="middle" font-size="10">10</text><line x1="415" y1="50" x2="415" y2="300" stroke="#eee" stroke-width="0.5" stroke-dasharray="4,3"/><text x="305" y="345" text-anchor="middle" font-size="11">Evidence score</text><rect x="140" y="59.375" width="275" height="43.75" fill="#059669" opacity="0.8" rx="3"/><text x="135" y="85.25" text-anchor="end" font-size="11">H4: Dynamical Integration</text><text x="423" y="86.25" font-size="13" font-weight="bold" fill="#059669">10</text><rect x="140" y="121.875" width="192.5" height="43.75" fill="#2563eb" opacity="0.8" rx="3"/><text x="135" y="147.75" text-anchor="end" font-size="11">H1: Halo Response</text><text x="340.5" y="148.75" font-size="13" font-weight="bold" fill="#2563eb">7</text><rect x="140" y="184.375" width="192.5" height="43.75" fill="#7c3aed" opacity="0.8" rx="3"/><text x="135" y="210.25" text-anchor="end" font-size="11">H3: Feedback Imprint</text><text x="340.5" y="211.25" font-size="13" font-weight="bold" fill="#7c3aed">7</text><rect x="140" y="246.875" width="110" height="43.75" fill="#f59e0b" opacity="0.8" rx="3"/><text x="135" y="272.75" text-anchor="end" font-size="11">H2: Assembly History</text><text x="258" y="273.75" font-size="13" font-weight="bold" fill="#f59e0b">4</text></svg>
