<?xml version="1.0" encoding="UTF-8"?>
<svg xmlns="http://www.w3.org/2000/svg" viewBox="0 0 560 440" width="560" height="440" font-family="serif">
<rect width="560" height="440" fill="white"/>
<text x="280" y="25" text-anchor="middle" font-size="13" font-weight="bold">Synthesis: Hierarchical Coupling Law</text>
<rect x="200" y="50" width="160" height="65" rx="6" fill="#dbeafe" stroke="#2563eb" stroke-width="2"/><text x="280" y="68" text-anchor="middle" font-size="12" font-weight="bold">Structural Core</text><text x="280" y="84" text-anchor="middle" font-size="10" fill="#555">logMHI + logMhost + MR</text><text x="280" y="100" text-anchor="middle" font-size="10" fill="#333" font-weight="bold">LOO = 44.1%</text><rect x="200" y="145" width="160" height="65" rx="6" fill="#ede9fe" stroke="#7c3aed" stroke-width="2"/><text x="280" y="163" text-anchor="middle" font-size="12" font-weight="bold">VfResid Channel</text><text x="280" y="179" text-anchor="middle" font-size="10" fill="#555">Kinematic residual</text><text x="280" y="195" text-anchor="middle" font-size="10" fill="#333" font-weight="bold">+17.1 pp → 61.1%</text><rect x="200" y="240" width="160" height="65" rx="6" fill="#d1fae5" stroke="#059669" stroke-width="2"/><text x="280" y="258" text-anchor="middle" font-size="12" font-weight="bold">lhOuter Channel</text><text x="280" y="274" text-anchor="middle" font-size="10" fill="#555">Outer halo quality</text><text x="280" y="290" text-anchor="middle" font-size="10" fill="#333" font-weight="bold">+4.3 pp → 65.4%</text><rect x="200" y="340" width="160" height="65" rx="6" fill="#fef3c7" stroke="#f59e0b" stroke-width="2"/><text x="280" y="358" text-anchor="middle" font-size="12" font-weight="bold">Regime Gate</text><text x="280" y="374" text-anchor="middle" font-size="10" fill="#555">Vflat ≥ 120 km/s activates</text><text x="280" y="390" text-anchor="middle" font-size="10" fill="#333" font-weight="bold">External: P &gt; 99.6%</text><line x1="280" y1="115" x2="280" y2="145" stroke="#333" stroke-width="1.5" marker-end="url(#arrowDown)"/><line x1="280" y1="210" x2="280" y2="240" stroke="#333" stroke-width="1.5" marker-end="url(#arrowDown)"/><line x1="280" y1="305" x2="280" y2="340" stroke="#333" stroke-width="1.5" marker-end="url(#arrowDown)"/><defs><marker id="arrowDown" markerWidth="8" markerHeight="8" refX="4" refY="7" orient="auto"><path d="M0,0 L4,7 L8,0" fill="none" stroke="#333" stroke-width="1"/></marker></defs><text x="390" y="165" font-size="10" fill="#7c3aed">r(haloK) = 0.60</text><text x="390" y="180" font-size="10" fill="#7c3aed">36–69% irreducible</text><text x="390" y="195" font-size="10" fill="#7c3aed">Mediates all halo proxies</text><line x1="360" y1="177.5" x2="385" y2="180" stroke="#7c3aed" stroke-width="1" stroke-dasharray="3,2"/><text x="60" y="360" font-size="10" fill="#b45309">H4: Dynamical Integration</text><text x="60" y="375" font-size="10" fill="#b45309">Score = 10 (best)</text><text x="60" y="390" font-size="10" fill="#b45309">slope ratio 2.6:1</text><line x1="200" y1="372.5" x2="200" y2="375" stroke="#b45309" stroke-width="1" stroke-dasharray="3,2"/></svg>
