<?xml version="1.0" encoding="UTF-8"?>
<svg xmlns="http://www.w3.org/2000/svg" width="520" height="400" viewBox="0 0 520 400" font-family="Helvetica, Arial, sans-serif">
<rect width="520" height="400" fill="white"/>
<rect x="160" y="40" width="36.8" height="38" fill="#457b9d" rx="3"/>
<rect x="160" y="40" width="320" height="38" fill="none" stroke="#ccc" rx="3"/>
<text x="152" y="53" text-anchor="end" font-size="11" font-weight="bold">RC shape features</text>
<text x="152" y="67" text-anchor="end" font-size="10" fill="#666">(Program 8A)</text>
<text x="202.8" y="64" font-size="12" font-weight="bold" fill="#457b9d">11.5%</text>
<rect x="160" y="96" width="96.0" height="38" fill="#6a9fba" rx="3"/>
<rect x="160" y="96" width="320" height="38" fill="none" stroke="#ccc" rx="3"/>
<text x="152" y="109" text-anchor="end" font-size="11" font-weight="bold">Scalar haloResponse</text>
<text x="152" y="123" text-anchor="end" font-size="10" fill="#666">(Program 8B)</text>
<text x="262" y="120" font-size="12" font-weight="bold" fill="#6a9fba">30%</text>
<rect x="160" y="152" width="96.0" height="38" fill="#8bbbd4" rx="3"/>
<rect x="160" y="152" width="320" height="38" fill="none" stroke="#ccc" rx="3"/>
<text x="152" y="165" text-anchor="end" font-size="11" font-weight="bold">71-dim RC map</text>
<text x="152" y="179" text-anchor="end" font-size="10" fill="#666">(Program 8C)</text>
<text x="262" y="176" font-size="12" font-weight="bold" fill="#8bbbd4">30%</text>
<rect x="160" y="208" width="265.6" height="38" fill="#e63946" rx="3"/>
<rect x="160" y="208" width="320" height="38" fill="none" stroke="#ccc" rx="3"/>
<text x="152" y="221" text-anchor="end" font-size="11" font-weight="bold">m=2 velocity field</text>
<text x="152" y="235" text-anchor="end" font-size="10" fill="#666">(Program 9)</text>
<text x="431.59999999999997" y="232" font-size="12" font-weight="bold" fill="#e63946">83%</text>
<line x1="256.0" y1="35" x2="256.0" y2="256" stroke="#333" stroke-width="1.5" stroke-dasharray="6,4"/>
<text x="260" y="32" font-size="10" fill="#333">1D ceiling (~30%)</text>
<line x1="256.0" y1="279" x2="443.2" y2="279" stroke="#e63946" stroke-width="2" marker-end="url(#arrowhead)"/>
<defs><marker id="arrowhead" markerWidth="8" markerHeight="6" refX="8" refY="3" orient="auto"><polygon points="0 0, 8 3, 0 6" fill="#e63946"/></marker></defs>
<text x="349.6" y="273" text-anchor="middle" font-size="10" fill="#e63946">+53% recovered by 2D m=2</text>
<text x="160.0" y="304" text-anchor="middle" font-size="11">0%</text>
<line x1="160.0" y1="246" x2="160.0" y2="250" stroke="#333"/>
<text x="224.0" y="304" text-anchor="middle" font-size="11">20%</text>
<line x1="224.0" y1="246" x2="224.0" y2="250" stroke="#333"/>
<text x="288.0" y="304" text-anchor="middle" font-size="11">40%</text>
<line x1="288.0" y1="246" x2="288.0" y2="250" stroke="#333"/>
<text x="352.0" y="304" text-anchor="middle" font-size="11">60%</text>
<line x1="352.0" y1="246" x2="352.0" y2="250" stroke="#333"/>
<text x="416.0" y="304" text-anchor="middle" font-size="11">80%</text>
<line x1="416.0" y1="246" x2="416.0" y2="250" stroke="#333"/>
<text x="480.0" y="304" text-anchor="middle" font-size="11">100%</text>
<line x1="480.0" y1="246" x2="480.0" y2="250" stroke="#333"/>
<text x="320" y="392" text-anchor="middle" font-size="13" font-weight="bold">Variance of H recovered (%)</text>
<text x="260" y="22" text-anchor="middle" font-size="14" font-weight="bold">Information Ceiling: 1D vs 2D Recovery of Hidden State H</text>
</svg>