<?xml version="1.0" encoding="UTF-8"?>
<svg xmlns="http://www.w3.org/2000/svg" width="520" height="460" viewBox="0 0 520 460" font-family="Helvetica, Arial, sans-serif">
<rect width="520" height="460" fill="white"/>
<rect x="80" y="40" width="410" height="360" fill="#fafafa" stroke="#ccc"/>
<line x1="80" y1="400.0" x2="490" y2="400.0" stroke="#eee"/>
<line x1="80" y1="294.1" x2="490" y2="294.1" stroke="#eee"/>
<line x1="80" y1="188.2" x2="490" y2="188.2" stroke="#eee"/>
<line x1="80" y1="82.4" x2="490" y2="82.4" stroke="#eee"/>
<circle cx="428.9" cy="91.5" r="7" fill="#e63946" stroke="#000" stroke-width="0.8"/>
<text x="438.8583450668613" y="81.52372434919093" font-size="9" fill="#333">NGC2841</text>
<circle cx="119.1" cy="307.7" r="7" fill="#1d3557" stroke="#000" stroke-width="0.8"/>
<text x="129.12649659031294" y="319.67432170179603" font-size="9" fill="#333">NGC5055</text>
<circle cx="286.5" cy="109.7" r="5" fill="#457b9d" stroke="#000" stroke-width="0.8"/>
<text x="296.462572855246" y="101.65390810021346" font-size="9" fill="#333">NGC3521</text>
<circle cx="232.9" cy="244.6" r="5" fill="#457b9d" stroke="#000" stroke-width="0.8"/>
<text x="242.9168574822092" y="239.60326437899408" font-size="9" fill="#333">NGC7331</text>
<circle cx="255.6" cy="280.1" r="5" fill="#457b9d" stroke="#000" stroke-width="0.8"/>
<text x="265.6101838254709" y="275.08992837979054" font-size="9" fill="#333">NGC2403</text>
<circle cx="222.6" cy="270.5" r="5" fill="#457b9d" stroke="#000" stroke-width="0.8"/>
<text x="232.59303385587907" y="265.4592069721174" font-size="9" fill="#333">NGC2903</text>
<circle cx="205.3" cy="226.7" r="5" fill="#457b9d" stroke="#000" stroke-width="0.8"/>
<text x="215.3303050338862" y="221.73553769858574" font-size="9" fill="#333">NGC3198</text>
<line x1="80.0" y1="346.6" x2="490.0" y2="38.3" stroke="#e63946" stroke-width="2" stroke-dasharray="6,3"/>
<text x="80.0" y="418" text-anchor="middle" font-size="11">-2</text>
<line x1="80.0" y1="400" x2="80.0" y2="404" stroke="#333"/>
<text x="162.0" y="418" text-anchor="middle" font-size="11">-1</text>
<line x1="162.0" y1="400" x2="162.0" y2="404" stroke="#333"/>
<text x="244.0" y="418" text-anchor="middle" font-size="11">0</text>
<line x1="244.0" y1="400" x2="244.0" y2="404" stroke="#333"/>
<text x="326.0" y="418" text-anchor="middle" font-size="11">1</text>
<line x1="326.0" y1="400" x2="326.0" y2="404" stroke="#333"/>
<text x="408.0" y="418" text-anchor="middle" font-size="11">2</text>
<line x1="408.0" y1="400" x2="408.0" y2="404" stroke="#333"/>
<text x="490.0" y="418" text-anchor="middle" font-size="11">3</text>
<line x1="490.0" y1="400" x2="490.0" y2="404" stroke="#333"/>
<text x="72" y="361.64705882352933" text-anchor="end" font-size="11">3.0</text>
<line x1="76" y1="357.6" x2="80" y2="357.6" stroke="#333"/>
<text x="72" y="255.7647058823529" text-anchor="end" font-size="11">3.5</text>
<line x1="76" y1="251.8" x2="80" y2="251.8" stroke="#333"/>
<text x="72" y="149.88235294117646" text-anchor="end" font-size="11">4.0</text>
<line x1="76" y1="145.9" x2="80" y2="145.9" stroke="#333"/>
<text x="72" y="44" text-anchor="end" font-size="11">4.5</text>
<line x1="76" y1="40.0" x2="80" y2="40.0" stroke="#333"/>
<text x="285" y="452" text-anchor="middle" font-size="13" font-weight="bold">Bilateral Excess DQ (σ)</text>
<text x="15" y="220" text-anchor="middle" font-size="13" font-weight="bold" transform="rotate(-90,15,220)">log₁₀ m=2 Power</text>
<text x="285" y="22" text-anchor="middle" font-size="14" font-weight="bold">DQ vs m=2 Azimuthal Power: r = 0.85 (p = 0.005, N = 7)</text>
<rect x="350" y="350" width="130" height="44" fill="white" fill-opacity="0.9" stroke="#ccc" rx="4"/>
<circle cx="365" cy="364" r="6" fill="#e63946" stroke="#000" stroke-width="0.8"/>
<text x="375" y="368" font-size="10">NGC 2841 (High-H)</text>
<circle cx="365" cy="382" r="6" fill="#1d3557" stroke="#000" stroke-width="0.8"/>
<text x="375" y="386" font-size="10">NGC 5055 (Low-H)</text>
</svg>