<?xml version="1.0" encoding="UTF-8"?>
<svg xmlns="http://www.w3.org/2000/svg" width="520" height="400" viewBox="0 0 520 400" font-family="Helvetica, Arial, sans-serif">
<rect width="520" height="400" fill="white"/>
<text x="260" y="22" text-anchor="middle" font-size="14" font-weight="bold">Gold Pair: NGC 2841 (High-H) vs NGC 5055 (Low-H)</text>
<text x="260" y="38" text-anchor="middle" font-size="11" fill="#666">Δlog Mbar = 0.07 dex (structurally matched) | m=2 ratio = 10.5×</text>
<text x="170" y="66" text-anchor="middle" font-size="12" font-weight="bold" fill="#e63946">NGC 2841</text>
<text x="370" y="66" text-anchor="middle" font-size="12" font-weight="bold" fill="#1d3557">NGC 5055</text>
<text x="100" y="66" text-anchor="middle" font-size="12" font-weight="bold" fill="#333">Property</text>
<rect x="60" y="70" width="430" height="40" fill="#f8f8f8" rx="3"/>
<text x="100" y="92" text-anchor="middle" font-size="12" font-weight="bold">log Mbar</text>
<text x="170" y="92" text-anchor="middle" font-size="13" fill="#e63946">11.03</text>
<text x="370" y="92" text-anchor="middle" font-size="13" fill="#1d3557">10.96</text>
<rect x="60" y="114" width="430" height="40" fill="white" rx="3"/>
<text x="100" y="136" text-anchor="middle" font-size="12" font-weight="bold">Vflat</text>
<text x="170" y="136" text-anchor="middle" font-size="13" fill="#e63946">285</text>
<text x="370" y="136" text-anchor="middle" font-size="13" fill="#1d3557">179</text>
<rect x="60" y="158" width="430" height="40" fill="#f8f8f8" rx="3"/>
<text x="100" y="180" text-anchor="middle" font-size="12" font-weight="bold">DQ</text>
<text x="170" y="180" text-anchor="middle" font-size="13" fill="#e63946">2.25</text>
<text x="370" y="180" text-anchor="middle" font-size="13" fill="#1d3557">-1.52</text>
<text x="270" y="180" text-anchor="middle" font-size="11" fill="#666">Δ=3.78σ</text>
<rect x="60" y="202" width="430" height="40" fill="white" rx="3"/>
<text x="100" y="224" text-anchor="middle" font-size="12" font-weight="bold">m=2 Power</text>
<text x="170" y="224" text-anchor="middle" font-size="13" fill="#e63946">18059</text>
<text x="370" y="224" text-anchor="middle" font-size="13" fill="#1d3557">1722</text>
<text x="270" y="224" text-anchor="middle" font-size="11" font-weight="bold" fill="#e63946">10.5×</text>
<rect x="60" y="246" width="430" height="40" fill="#f8f8f8" rx="3"/>
<text x="100" y="268" text-anchor="middle" font-size="12" font-weight="bold">PA Twist</text>
<text x="170" y="268" text-anchor="middle" font-size="13" fill="#e63946">2.43</text>
<text x="370" y="268" text-anchor="middle" font-size="13" fill="#1d3557">17.20</text>
<rect x="60" y="290" width="430" height="40" fill="white" rx="3"/>
<text x="100" y="312" text-anchor="middle" font-size="12" font-weight="bold">Coherence</text>
<text x="170" y="312" text-anchor="middle" font-size="13" fill="#e63946">1.00</text>
<text x="370" y="312" text-anchor="middle" font-size="13" fill="#1d3557">0.97</text>
</svg>