<?xml version="1.0" encoding="UTF-8"?>
<svg xmlns="http://www.w3.org/2000/svg" width="520" height="460" viewBox="0 0 520 460" font-family="Helvetica, Arial, sans-serif">
<rect width="520" height="460" fill="white"/>
<text x="260" y="22" text-anchor="middle" font-size="14" font-weight="bold">Program 9V: Red Team Scorecard — 11/11 PASS</text>
<text x="260" y="40" text-anchor="middle" font-size="11" fill="#666">8 Critical + 3 Advisory = All Pass</text>
<rect x="10" y="60" width="500" height="30" fill="#f0f8f0" rx="3"/>
<text x="35" y="80" font-size="16" fill="#2d6a4f">✓</text>
<rect x="50" y="65" width="62" height="18" fill="#1d3557" rx="9"/>
<text x="81" y="77" text-anchor="middle" font-size="9" fill="white">CRITICAL</text>
<text x="120" y="80" font-size="11" fill="#333">Independent replication</text>
<text x="470" y="80" text-anchor="end" font-size="11" font-weight="bold" fill="#2d6a4f">r = 0.91</text>
<rect x="10" y="92" width="500" height="30" fill="#f8fff8" rx="3"/>
<text x="35" y="112" font-size="16" fill="#2d6a4f">✓</text>
<rect x="50" y="97" width="62" height="18" fill="#1d3557" rx="9"/>
<text x="81" y="109" text-anchor="middle" font-size="9" fill="white">CRITICAL</text>
<text x="120" y="112" font-size="11" fill="#333">All sensitivity positive</text>
<text x="470" y="112" text-anchor="end" font-size="11" font-weight="bold" fill="#2d6a4f">19/19</text>
<rect x="10" y="124" width="500" height="30" fill="#f0f8f0" rx="3"/>
<text x="35" y="144" font-size="16" fill="#2d6a4f">✓</text>
<rect x="50" y="129" width="52" height="18" fill="#999" rx="9"/>
<text x="76" y="141" text-anchor="middle" font-size="9" fill="white">advisory</text>
<text x="120" y="144" font-size="11" fill="#333">≥80% above r = 0.3</text>
<text x="470" y="144" text-anchor="end" font-size="11" font-weight="bold" fill="#2d6a4f">19/19</text>
<rect x="10" y="156" width="500" height="30" fill="#f8fff8" rx="3"/>
<text x="35" y="176" font-size="16" fill="#2d6a4f">✓</text>
<rect x="50" y="161" width="62" height="18" fill="#1d3557" rx="9"/>
<text x="81" y="173" text-anchor="middle" font-size="9" fill="white">CRITICAL</text>
<text x="120" y="176" font-size="11" fill="#333">Unbarred-only survives</text>
<text x="470" y="176" text-anchor="end" font-size="11" font-weight="bold" fill="#2d6a4f">r = 0.91</text>
<rect x="10" y="188" width="500" height="30" fill="#f0f8f0" rx="3"/>
<text x="35" y="208" font-size="16" fill="#2d6a4f">✓</text>
<rect x="50" y="193" width="52" height="18" fill="#999" rx="9"/>
<text x="76" y="205" text-anchor="middle" font-size="9" fill="white">advisory</text>
<text x="120" y="208" font-size="11" fill="#333">Outer-only m=2 signal</text>
<text x="470" y="208" text-anchor="end" font-size="11" font-weight="bold" fill="#2d6a4f">r = 0.87</text>
<rect x="10" y="220" width="500" height="30" fill="#f8fff8" rx="3"/>
<text x="35" y="240" font-size="16" fill="#2d6a4f">✓</text>
<rect x="50" y="225" width="62" height="18" fill="#1d3557" rx="9"/>
<text x="81" y="237" text-anchor="middle" font-size="9" fill="white">CRITICAL</text>
<text x="120" y="240" font-size="11" fill="#333">LOO all positive</text>
<text x="470" y="240" text-anchor="end" font-size="11" font-weight="bold" fill="#2d6a4f">7/7</text>
<rect x="10" y="252" width="500" height="30" fill="#f0f8f0" rx="3"/>
<text x="35" y="272" font-size="16" fill="#2d6a4f">✓</text>
<rect x="50" y="257" width="62" height="18" fill="#1d3557" rx="9"/>
<text x="81" y="269" text-anchor="middle" font-size="9" fill="white">CRITICAL</text>
<text x="120" y="272" font-size="11" fill="#333">r &gt; 0.3 without NGC2841</text>
<text x="470" y="272" text-anchor="end" font-size="11" font-weight="bold" fill="#2d6a4f">r = 0.67</text>
<rect x="10" y="284" width="500" height="30" fill="#f8fff8" rx="3"/>
<text x="35" y="304" font-size="16" fill="#2d6a4f">✓</text>
<rect x="50" y="289" width="52" height="18" fill="#999" rx="9"/>
<text x="76" y="301" text-anchor="middle" font-size="9" fill="white">advisory</text>
<text x="120" y="304" font-size="11" fill="#333">Positive without gold pair</text>
<text x="470" y="304" text-anchor="end" font-size="11" font-weight="bold" fill="#2d6a4f">r = 0.74</text>
<rect x="10" y="316" width="500" height="30" fill="#f0f8f0" rx="3"/>
<text x="35" y="336" font-size="16" fill="#2d6a4f">✓</text>
<rect x="50" y="321" width="62" height="18" fill="#1d3557" rx="9"/>
<text x="81" y="333" text-anchor="middle" font-size="9" fill="white">CRITICAL</text>
<text x="120" y="336" font-size="11" fill="#333">Inclination not confounder</text>
<text x="470" y="336" text-anchor="end" font-size="11" font-weight="bold" fill="#2d6a4f">r = 0.00</text>
<rect x="10" y="348" width="500" height="30" fill="#f8fff8" rx="3"/>
<text x="35" y="368" font-size="16" fill="#2d6a4f">✓</text>
<rect x="50" y="353" width="62" height="18" fill="#1d3557" rx="9"/>
<text x="81" y="365" text-anchor="middle" font-size="9" fill="white">CRITICAL</text>
<text x="120" y="368" font-size="11" fill="#333">Partial r|confounders &gt; 0</text>
<text x="470" y="368" text-anchor="end" font-size="11" font-weight="bold" fill="#2d6a4f">r = 0.66</text>
<rect x="10" y="380" width="500" height="30" fill="#f0f8f0" rx="3"/>
<text x="35" y="400" font-size="16" fill="#2d6a4f">✓</text>
<rect x="50" y="385" width="62" height="18" fill="#1d3557" rx="9"/>
<text x="81" y="397" text-anchor="middle" font-size="9" fill="white">CRITICAL</text>
<text x="120" y="400" font-size="11" fill="#333">Program 8B reconciliation</text>
<text x="470" y="400" text-anchor="end" font-size="11" font-weight="bold" fill="#2d6a4f">consistent</text>
<rect x="130" y="427" width="260" height="36" fill="#2d6a4f" rx="6"/>
<text x="260" y="449" text-anchor="middle" font-size="14" font-weight="bold" fill="white">CARRIER CLAIM SURVIVES — ~95%</text>
</svg>